<svg xmlns="http://www.w3.org/2000/svg" viewBox="116.49 72.29 235.16 227.74">
  <circle style="fill: rgb(240, 8, 8);" cx="205.114" cy="160.806" r="88.519" transform="matrix(1.326996, 0, 0.001289, 1.286417, -38.322449, -20.704306)"/>
  <path d="M 167.946 131.573 L 167.786 145.943 L 167.926 145.943 C 170.226 141.816 172.653 137.213 175.206 132.133 L 176.396 129.813 L 178.216 129.813 L 179.126 145.943 L 179.266 145.943 C 183.586 137.15 185.843 132.37 186.036 131.603 C 186.096 131.363 185.963 131.166 185.636 131.013 C 185.309 130.866 184.726 130.71 183.886 130.543 L 184.176 129.733 C 185.336 129.786 186.483 129.813 187.616 129.813 C 188.743 129.813 189.903 129.786 191.096 129.733 L 190.976 130.543 C 190.076 130.71 189.413 130.89 188.986 131.083 C 188.566 131.283 188.273 131.56 188.106 131.913 C 184.333 139.513 181.439 145.206 179.426 148.993 L 176.786 149.243 L 175.916 134.123 L 175.796 134.123 L 167.916 148.993 L 165.286 149.243 L 165.076 131.743 C 165.029 131.43 164.869 131.193 164.596 131.033 C 164.329 130.873 163.796 130.71 162.996 130.543 L 163.286 129.733 C 164.446 129.786 165.689 129.813 167.016 129.813 C 168.343 129.813 169.603 129.786 170.796 129.733 L 170.676 130.543 C 169.309 130.783 168.486 131.016 168.206 131.243 C 168.066 131.336 167.979 131.446 167.946 131.573 ZM 197.825 147.953 C 199.585 147.953 201.115 147.596 202.415 146.883 C 203.709 146.163 204.695 145.186 205.375 143.953 L 206.055 144.293 C 205.682 144.96 205.155 146.21 204.475 148.043 C 201.962 148.903 199.605 149.333 197.405 149.333 C 194.345 149.333 192.125 148.496 190.745 146.823 C 189.372 145.15 189.055 142.83 189.795 139.863 C 190.535 136.896 192.035 134.436 194.295 132.483 C 196.555 130.536 199.225 129.563 202.305 129.563 C 203.165 129.563 204.109 129.633 205.135 129.773 C 206.162 129.913 206.872 129.983 207.265 129.983 C 207.659 129.983 208.092 129.926 208.565 129.813 L 208.465 130.233 C 208.125 131.593 207.909 132.91 207.815 134.183 L 206.975 134.513 C 206.842 132.073 205.169 130.853 201.955 130.853 C 200.089 130.853 198.319 131.513 196.645 132.833 C 195.812 133.486 195.069 134.356 194.415 135.443 C 193.762 136.523 193.279 137.683 192.965 138.923 C 192.659 140.17 192.509 141.296 192.515 142.303 C 192.529 143.31 192.699 144.243 193.025 145.103 C 193.352 145.963 193.925 146.653 194.745 147.173 C 195.572 147.693 196.599 147.953 197.825 147.953 Z" transform="matrix(2.195672035217285, 0, 0.002122000092640519, 2.117274045944214, -129.7786102294922, -118.22709655761719)" style="fill: rgb(244, 242, 246); white-space: pre;"/>
  <path d="M 231.776 118.684 C 228.709 126.644 224.569 141.077 219.356 161.984 C 210.916 195.831 206.076 216.867 204.836 225.094 L 204.186 229.344 C 203.846 231.771 204.696 233.491 206.736 234.504 C 208.776 235.517 212.933 236.697 219.206 238.044 L 217.136 243.914 C 208.743 243.507 199.556 243.304 189.576 243.304 C 179.596 243.304 170.306 243.507 161.706 243.914 L 162.566 238.044 C 169.779 236.697 174.733 235.484 177.426 234.404 C 180.126 233.324 181.896 231.637 182.736 229.344 C 185.803 221.391 189.939 206.961 195.146 186.054 C 203.586 152.201 208.446 131.094 209.726 122.734 L 210.326 118.684 C 210.666 116.257 209.883 114.537 207.976 113.524 C 206.069 112.517 202.046 111.337 195.906 109.984 L 197.976 104.124 C 206.376 104.524 215.226 104.724 224.526 104.724 C 233.833 104.724 242.786 104.524 251.386 104.124 L 250.526 109.984 C 243.719 111.337 239.109 112.517 236.696 113.524 C 234.289 114.537 232.649 116.257 231.776 118.684 Z" transform="matrix(1, 0, 0.001002000062726438, 1, -0.17557400465011597, 0)" style="fill: rgb(248, 244, 244); white-space: pre;"/>
  <path d="M 224.166 214.249 C 223.739 214.249 223.346 214.356 222.986 214.569 C 222.619 214.776 222.326 215.042 222.106 215.369 C 221.679 215.956 221.399 216.519 221.266 217.059 C 221.053 217.906 221.046 218.609 221.246 219.169 C 221.446 219.736 221.913 220.019 222.646 220.019 C 223.039 220.019 223.409 219.926 223.756 219.739 C 224.096 219.559 224.383 219.326 224.616 219.039 C 225.049 218.499 225.343 217.962 225.496 217.429 C 226.023 215.309 225.579 214.249 224.166 214.249 Z M 224.426 213.489 C 225.606 213.489 226.389 213.789 226.776 214.389 C 227.163 214.989 227.223 215.822 226.956 216.889 C 226.689 217.962 226.156 218.876 225.356 219.629 C 224.556 220.382 223.566 220.759 222.386 220.759 C 221.206 220.759 220.423 220.462 220.036 219.869 C 219.643 219.276 219.579 218.446 219.846 217.379 C 220.113 216.312 220.649 215.399 221.456 214.639 C 222.263 213.872 223.253 213.489 224.426 213.489 ZM 230.815 220.219 L 230.655 220.669 C 230.169 220.636 229.559 220.619 228.825 220.619 C 228.099 220.619 227.482 220.636 226.975 220.669 L 227.135 220.219 C 227.349 220.199 227.585 220.156 227.845 220.089 C 228.105 220.016 228.249 219.946 228.275 219.879 C 228.362 219.879 228.865 218.029 229.785 214.329 L 228.715 214.339 L 228.705 214.169 L 229.215 213.569 C 229.355 213.589 229.599 213.609 229.945 213.629 C 230.112 212.956 230.379 212.352 230.745 211.819 C 231.112 211.279 231.495 210.859 231.895 210.559 C 232.295 210.259 232.712 210.006 233.145 209.799 C 233.845 209.472 234.382 209.309 234.755 209.309 C 234.842 209.309 234.949 209.429 235.075 209.669 C 235.209 209.909 235.275 210.149 235.275 210.389 L 234.975 210.679 C 234.575 210.486 234.155 210.389 233.715 210.389 C 232.522 210.389 231.659 211.462 231.125 213.609 L 233.145 213.599 L 233.175 213.779 L 232.545 214.389 C 232.199 214.356 231.665 214.336 230.945 214.329 C 230.232 217.202 229.822 219.052 229.715 219.879 C 229.709 219.946 229.839 220.016 230.105 220.089 C 230.372 220.162 230.609 220.206 230.815 220.219 ZM 240.738 209.999 L 243.088 209.999 C 244.228 209.999 245.028 210.272 245.488 210.819 C 245.955 211.372 246.082 212.069 245.868 212.909 C 245.662 213.749 245.098 214.522 244.178 215.229 C 243.258 215.929 242.178 216.279 240.938 216.279 C 240.598 216.279 240.238 216.249 239.858 216.189 L 239.148 219.549 C 239.122 219.736 239.185 219.869 239.338 219.949 C 239.498 220.022 239.818 220.112 240.298 220.219 L 240.138 220.669 C 239.498 220.636 238.795 220.619 238.028 220.619 C 237.262 220.619 236.548 220.636 235.888 220.669 L 235.958 220.219 C 236.512 220.112 236.892 220.019 237.098 219.939 C 237.305 219.852 237.442 219.722 237.508 219.549 C 237.742 218.942 238.058 217.836 238.458 216.229 C 239.105 213.636 239.475 212.019 239.568 211.379 L 239.618 211.069 C 239.645 210.882 239.585 210.752 239.438 210.679 C 239.292 210.599 238.982 210.509 238.508 210.409 L 238.668 209.959 C 239.315 209.986 240.005 209.999 240.738 209.999 Z M 240.848 215.629 C 241.742 215.629 242.495 215.416 243.108 214.989 C 243.715 214.569 244.128 213.926 244.348 213.059 C 244.562 212.199 244.498 211.582 244.158 211.209 C 243.818 210.836 243.212 210.649 242.338 210.649 C 241.958 210.649 241.712 210.676 241.598 210.729 C 241.478 210.782 241.368 210.932 241.268 211.179 C 241.028 211.719 240.608 213.186 240.008 215.579 C 240.302 215.612 240.582 215.629 240.848 215.629 ZM 248.571 217.369 C 247.718 217.389 247.031 217.549 246.511 217.849 C 245.998 218.142 245.695 218.466 245.601 218.819 C 245.515 219.172 245.541 219.429 245.681 219.589 C 245.828 219.749 246.101 219.829 246.501 219.829 C 246.908 219.829 247.438 219.659 248.091 219.319 L 248.571 217.369 Z M 248.861 220.759 C 248.241 220.759 247.961 220.422 248.021 219.749 C 246.948 220.422 246.081 220.759 245.421 220.759 C 244.975 220.759 244.631 220.622 244.391 220.349 C 244.145 220.076 244.095 219.649 244.241 219.069 C 244.388 218.489 244.825 217.966 245.551 217.499 C 246.285 217.039 247.351 216.762 248.751 216.669 L 249.111 215.229 C 249.178 214.936 249.125 214.712 248.951 214.559 C 248.778 214.406 248.501 214.329 248.121 214.329 C 247.741 214.329 247.411 214.432 247.131 214.639 C 246.851 214.852 246.668 215.126 246.581 215.459 C 246.555 215.579 246.538 215.719 246.531 215.879 L 246.151 216.029 C 245.971 215.916 245.815 215.762 245.681 215.569 C 245.548 215.369 245.495 215.226 245.521 215.139 C 245.541 215.052 245.641 214.922 245.821 214.749 C 246.001 214.582 246.235 214.399 246.521 214.199 C 246.808 214.006 247.168 213.839 247.601 213.699 C 248.035 213.559 248.501 213.489 249.001 213.489 C 249.495 213.489 249.865 213.609 250.111 213.849 C 250.365 214.096 250.411 214.536 250.251 215.169 C 250.091 215.802 249.788 217.142 249.341 219.189 C 249.228 219.689 249.351 219.939 249.711 219.939 C 249.871 219.939 250.041 219.896 250.221 219.809 L 250.281 220.219 C 249.795 220.579 249.321 220.759 248.861 220.759 ZM 257.085 213.399 C 257.165 213.399 257.272 213.519 257.405 213.759 C 257.532 214.006 257.598 214.246 257.605 214.479 L 257.295 214.779 C 256.962 214.632 256.592 214.559 256.185 214.559 C 255.785 214.559 255.375 214.726 254.955 215.059 C 254.542 215.399 254.245 215.939 254.065 216.679 C 253.618 218.499 253.398 219.559 253.405 219.859 C 253.398 219.939 253.528 220.016 253.795 220.089 C 254.062 220.156 254.348 220.199 254.655 220.219 L 254.495 220.669 C 254.008 220.636 253.385 220.619 252.625 220.619 C 251.865 220.619 251.232 220.636 250.725 220.669 L 250.885 220.219 C 251.098 220.199 251.325 220.156 251.565 220.089 C 251.812 220.016 251.948 219.946 251.975 219.879 C 252.148 219.512 252.372 218.789 252.645 217.709 C 253.078 215.949 253.305 214.872 253.325 214.479 L 252.405 214.189 L 252.475 213.779 C 253.135 213.779 253.838 213.689 254.585 213.509 L 254.845 213.649 C 254.785 213.802 254.672 214.226 254.505 214.919 C 254.925 214.419 255.398 214.039 255.925 213.779 C 256.445 213.526 256.832 213.399 257.085 213.399 ZM 261.498 217.369 C 260.645 217.389 259.958 217.549 259.438 217.849 C 258.925 218.142 258.622 218.466 258.528 218.819 C 258.442 219.172 258.468 219.429 258.608 219.589 C 258.755 219.749 259.028 219.829 259.428 219.829 C 259.835 219.829 260.365 219.659 261.018 219.319 L 261.498 217.369 Z M 261.788 220.759 C 261.168 220.759 260.888 220.422 260.948 219.749 C 259.875 220.422 259.008 220.759 258.348 220.759 C 257.902 220.759 257.558 220.622 257.318 220.349 C 257.072 220.076 257.022 219.649 257.168 219.069 C 257.315 218.489 257.752 217.966 258.478 217.499 C 259.212 217.039 260.278 216.762 261.678 216.669 L 262.038 215.229 C 262.105 214.936 262.052 214.712 261.878 214.559 C 261.705 214.406 261.428 214.329 261.048 214.329 C 260.668 214.329 260.338 214.432 260.058 214.639 C 259.778 214.852 259.595 215.126 259.508 215.459 C 259.482 215.579 259.465 215.719 259.458 215.879 L 259.078 216.029 C 258.898 215.916 258.742 215.762 258.608 215.569 C 258.475 215.369 258.422 215.226 258.448 215.139 C 258.468 215.052 258.568 214.922 258.748 214.749 C 258.928 214.582 259.162 214.399 259.448 214.199 C 259.735 214.006 260.095 213.839 260.528 213.699 C 260.962 213.559 261.428 213.489 261.928 213.489 C 262.422 213.489 262.792 213.609 263.038 213.849 C 263.292 214.096 263.338 214.536 263.178 215.169 C 263.018 215.802 262.715 217.142 262.268 219.189 C 262.155 219.689 262.278 219.939 262.638 219.939 C 262.798 219.939 262.968 219.896 263.148 219.809 L 263.208 220.219 C 262.722 220.579 262.248 220.759 261.788 220.759 ZM 269.322 219.749 C 268.442 220.422 267.579 220.759 266.732 220.759 C 265.885 220.759 265.265 220.452 264.872 219.839 C 264.485 219.219 264.435 218.339 264.722 217.199 C 265.002 216.059 265.549 215.152 266.362 214.479 C 267.175 213.806 268.059 213.469 269.012 213.469 C 269.525 213.469 270.099 213.652 270.732 214.019 C 271.212 212.106 271.475 210.932 271.522 210.499 L 271.542 210.279 L 270.622 209.989 L 270.692 209.579 C 271.352 209.579 272.059 209.489 272.812 209.309 L 273.072 209.439 C 272.725 210.732 272.259 212.562 271.672 214.929 C 271.079 217.296 270.752 218.649 270.692 218.989 C 270.625 219.329 270.615 219.546 270.662 219.639 C 270.709 219.726 270.792 219.789 270.912 219.829 C 271.112 219.889 271.355 219.929 271.642 219.949 L 271.482 220.399 C 271.102 220.432 270.515 220.526 269.722 220.679 C 269.449 220.546 269.315 220.236 269.322 219.749 Z M 269.182 214.419 C 268.362 214.419 267.692 214.686 267.172 215.219 C 266.652 215.752 266.295 216.409 266.102 217.189 C 265.902 217.976 265.915 218.606 266.142 219.079 C 266.369 219.546 266.795 219.779 267.422 219.779 C 268.055 219.779 268.699 219.599 269.352 219.239 C 269.612 218.412 270.015 216.899 270.562 214.699 C 270.075 214.512 269.615 214.419 269.182 214.419 ZM 276.654 211.649 C 276.461 211.809 276.251 211.889 276.024 211.889 C 275.797 211.889 275.627 211.809 275.514 211.649 C 275.394 211.489 275.364 211.292 275.424 211.059 C 275.484 210.832 275.611 210.639 275.804 210.479 C 275.997 210.326 276.207 210.249 276.434 210.249 C 276.661 210.249 276.834 210.326 276.954 210.479 C 277.067 210.639 277.094 210.832 277.034 211.059 C 276.981 211.292 276.854 211.489 276.654 211.649 Z M 275.964 213.509 L 276.224 213.649 L 275.334 217.069 C 275.007 218.402 274.834 219.269 274.814 219.669 L 274.794 219.879 C 274.787 219.946 274.901 220.016 275.134 220.089 C 275.374 220.156 275.597 220.199 275.804 220.219 L 275.654 220.669 C 275.161 220.636 274.557 220.619 273.844 220.619 C 273.131 220.619 272.524 220.636 272.024 220.669 L 272.184 220.219 C 272.404 220.199 272.647 220.156 272.914 220.089 C 273.181 220.016 273.327 219.946 273.354 219.879 C 273.527 219.512 273.747 218.789 274.014 217.709 C 274.454 215.949 274.681 214.872 274.694 214.479 L 273.774 214.189 L 273.844 213.779 C 274.511 213.779 275.217 213.689 275.964 213.509 ZM 282.466 213.769 L 282.656 213.879 C 282.49 214.546 282.393 215.056 282.366 215.409 L 281.936 215.549 C 281.93 215.022 281.83 214.656 281.636 214.449 C 281.45 214.242 281.17 214.139 280.796 214.139 C 280.423 214.139 280.103 214.239 279.836 214.439 C 279.57 214.632 279.403 214.862 279.336 215.129 C 279.223 215.596 279.396 215.979 279.856 216.279 L 281.226 217.149 C 281.813 217.529 282.016 218.082 281.836 218.809 C 281.703 219.336 281.38 219.792 280.866 220.179 C 280.346 220.566 279.7 220.759 278.926 220.759 C 278.153 220.759 277.39 220.629 276.636 220.369 C 276.943 219.649 277.153 219.056 277.266 218.589 L 277.706 218.449 C 277.706 218.822 277.713 219.076 277.726 219.209 C 277.74 219.342 277.78 219.509 277.846 219.709 C 277.92 219.902 278.04 220.029 278.206 220.089 C 278.38 220.156 278.646 220.189 279.006 220.189 C 279.373 220.189 279.7 220.086 279.986 219.879 C 280.273 219.672 280.453 219.422 280.526 219.129 C 280.633 218.696 280.48 218.346 280.066 218.079 L 278.616 217.149 C 278.03 216.789 277.826 216.236 278.006 215.489 C 278.14 214.962 278.46 214.496 278.966 214.089 C 279.466 213.689 280.08 213.489 280.806 213.489 C 281.526 213.489 282.08 213.582 282.466 213.769 ZM 288.357 215.659 C 288.471 215.186 288.424 214.832 288.217 214.599 C 288.004 214.366 287.734 214.249 287.407 214.249 C 286.921 214.249 286.454 214.439 286.007 214.819 C 285.561 215.206 285.211 215.676 284.957 216.229 L 288.197 216.109 C 288.264 215.956 288.317 215.806 288.357 215.659 Z M 285.737 220.759 C 284.637 220.759 283.887 220.446 283.487 219.819 C 283.087 219.192 283.014 218.362 283.267 217.329 C 283.527 216.289 284.061 215.389 284.867 214.629 C 285.674 213.869 286.697 213.489 287.937 213.489 C 288.564 213.489 289.057 213.712 289.417 214.159 C 289.777 214.599 289.847 215.259 289.627 216.139 L 288.947 216.779 C 288.887 216.766 288.397 216.759 287.477 216.759 C 286.564 216.759 285.641 216.796 284.707 216.869 L 284.667 217.009 C 284.434 217.949 284.454 218.652 284.727 219.119 C 285.007 219.592 285.487 219.829 286.167 219.829 C 286.847 219.829 287.607 219.662 288.447 219.329 L 288.517 219.799 C 287.557 220.439 286.631 220.759 285.737 220.759 ZM 298.197 209.999 L 300.547 209.999 C 301.687 209.999 302.487 210.272 302.947 210.819 C 303.414 211.372 303.54 212.069 303.327 212.909 C 303.12 213.749 302.557 214.522 301.637 215.229 C 300.717 215.929 299.637 216.279 298.397 216.279 C 298.057 216.279 297.697 216.249 297.317 216.189 L 296.607 219.549 C 296.58 219.736 296.644 219.869 296.797 219.949 C 296.957 220.022 297.277 220.112 297.757 220.219 L 297.597 220.669 C 296.957 220.636 296.254 220.619 295.487 220.619 C 294.72 220.619 294.007 220.636 293.347 220.669 L 293.417 220.219 C 293.97 220.112 294.35 220.019 294.557 219.939 C 294.764 219.852 294.9 219.722 294.967 219.549 C 295.2 218.942 295.517 217.836 295.917 216.229 C 296.564 213.636 296.934 212.019 297.027 211.379 L 297.077 211.069 C 297.104 210.882 297.044 210.752 296.897 210.679 C 296.75 210.599 296.44 210.509 295.967 210.409 L 296.127 209.959 C 296.774 209.986 297.464 209.999 298.197 209.999 Z M 298.307 215.629 C 299.2 215.629 299.954 215.416 300.567 214.989 C 301.174 214.569 301.587 213.926 301.807 213.059 C 302.02 212.199 301.957 211.582 301.617 211.209 C 301.277 210.836 300.67 210.649 299.797 210.649 C 299.417 210.649 299.17 210.676 299.057 210.729 C 298.937 210.782 298.827 210.932 298.727 211.179 C 298.487 211.719 298.067 213.186 297.467 215.579 C 297.76 215.612 298.04 215.629 298.307 215.629 ZM 306.595 214.249 C 306.168 214.249 305.775 214.356 305.415 214.569 C 305.048 214.776 304.755 215.042 304.535 215.369 C 304.108 215.956 303.828 216.519 303.695 217.059 C 303.482 217.906 303.475 218.609 303.675 219.169 C 303.875 219.736 304.342 220.019 305.075 220.019 C 305.468 220.019 305.838 219.926 306.185 219.739 C 306.525 219.559 306.812 219.326 307.045 219.039 C 307.478 218.499 307.772 217.962 307.925 217.429 C 308.452 215.309 308.008 214.249 306.595 214.249 Z M 306.855 213.489 C 308.035 213.489 308.818 213.789 309.205 214.389 C 309.592 214.989 309.652 215.822 309.385 216.889 C 309.118 217.962 308.585 218.876 307.785 219.629 C 306.985 220.382 305.995 220.759 304.815 220.759 C 303.635 220.759 302.852 220.462 302.465 219.869 C 302.072 219.276 302.008 218.446 302.275 217.379 C 302.542 216.312 303.078 215.399 303.885 214.639 C 304.692 213.872 305.682 213.489 306.855 213.489 ZM 314.024 211.649 C 313.831 211.809 313.621 211.889 313.394 211.889 C 313.168 211.889 312.998 211.809 312.884 211.649 C 312.764 211.489 312.734 211.292 312.794 211.059 C 312.854 210.832 312.981 210.639 313.174 210.479 C 313.368 210.326 313.578 210.249 313.804 210.249 C 314.031 210.249 314.204 210.326 314.324 210.479 C 314.438 210.639 314.464 210.832 314.404 211.059 C 314.351 211.292 314.224 211.489 314.024 211.649 Z M 313.334 213.509 L 313.594 213.649 L 312.704 217.069 C 312.378 218.402 312.204 219.269 312.184 219.669 L 312.164 219.879 C 312.158 219.946 312.271 220.016 312.504 220.089 C 312.744 220.156 312.968 220.199 313.174 220.219 L 313.024 220.669 C 312.531 220.636 311.928 220.619 311.214 220.619 C 310.501 220.619 309.894 220.636 309.394 220.669 L 309.554 220.219 C 309.774 220.199 310.018 220.156 310.284 220.089 C 310.551 220.016 310.698 219.946 310.724 219.879 C 310.898 219.512 311.118 218.789 311.384 217.709 C 311.824 215.949 312.051 214.872 312.064 214.479 L 311.144 214.189 L 311.214 213.779 C 311.881 213.779 312.588 213.689 313.334 213.509 ZM 317.427 214.929 L 316.877 217.069 C 316.544 218.402 316.37 219.269 316.357 219.669 L 316.337 219.879 C 316.324 219.946 316.42 220.016 316.627 220.089 C 316.834 220.156 317.037 220.199 317.237 220.219 L 317.077 220.669 C 316.59 220.636 316.027 220.619 315.387 220.619 C 314.747 220.619 314.174 220.636 313.667 220.669 L 313.827 220.219 C 314.034 220.199 314.254 220.156 314.487 220.089 C 314.727 220.016 314.864 219.946 314.897 219.879 C 315.064 219.512 315.284 218.789 315.557 217.709 C 315.997 215.949 316.224 214.872 316.237 214.479 L 315.317 214.189 L 315.387 213.779 C 316.047 213.779 316.754 213.689 317.507 213.509 L 317.767 213.649 L 317.577 214.389 C 318.877 213.789 319.95 213.489 320.797 213.489 C 321.31 213.489 321.677 213.592 321.897 213.799 C 322.11 214.006 322.147 214.392 322.007 214.959 L 321.477 217.069 C 321.15 218.402 320.97 219.269 320.937 219.669 L 320.937 219.879 C 320.93 219.946 321.03 220.016 321.237 220.089 C 321.437 220.156 321.64 220.199 321.847 220.219 L 321.687 220.669 C 321.2 220.636 320.637 220.619 319.997 220.619 C 319.35 220.619 318.777 220.636 318.277 220.669 L 318.437 220.219 C 318.637 220.199 318.857 220.156 319.097 220.089 C 319.337 220.016 319.47 219.946 319.497 219.879 C 319.67 219.512 319.944 218.576 320.317 217.069 L 320.697 215.569 C 320.797 215.162 320.747 214.882 320.547 214.729 C 320.347 214.576 319.964 214.499 319.397 214.499 C 318.83 214.499 318.174 214.642 317.427 214.929 ZM 324.997 220.759 C 323.924 220.759 323.514 220.242 323.767 219.209 C 324.007 218.302 324.22 217.469 324.407 216.709 C 324.6 215.949 324.787 215.156 324.967 214.329 L 323.977 214.339 L 323.967 214.169 L 324.477 213.569 C 324.617 213.596 324.83 213.616 325.117 213.629 L 325.407 212.199 L 326.657 211.289 L 326.917 211.429 C 326.704 212.196 326.514 212.922 326.347 213.609 L 328.627 213.599 L 328.657 213.779 L 327.947 214.399 C 327.6 214.359 327.007 214.336 326.167 214.329 L 325.647 216.399 C 325.327 217.692 325.11 218.619 324.997 219.179 C 324.917 219.646 325.134 219.879 325.647 219.879 C 326.06 219.879 326.544 219.759 327.097 219.519 L 327.157 220.029 C 326.304 220.516 325.584 220.759 324.997 220.759 Z" transform="matrix(1, 0, 0.001002000062726438, 1, -0.17557400465011597, 0)" style="fill: rgb(251, 248, 248); white-space: pre;"/>
</svg>