<?xml version="1.0" encoding="utf-8"?>
<svg viewBox="-61.972 -57.348 433.518 433.514" xmlns="http://www.w3.org/2000/svg">
  <path d="M 131.33 62.478 L 131.33 75.568 L 111.229 75.568 L 111.229 134.873 L 96.062 134.873 L 96.062 75.568 L 75.971 75.568 L 75.971 62.478 L 131.33 62.478 Z M 205.611 62.478 L 222.951 62.478 L 222.951 134.873 L 207.878 134.873 L 207.878 84.35 L 190.156 110.042 L 182.573 110.042 L 165.13 84.547 L 165.13 134.873 L 150.056 134.873 L 150.056 62.478 L 167.314 62.478 L 186.457 90.848 L 205.611 62.478 Z" style="fill: rgb(41, 66, 113); white-space: pre;"/>
  <path d="M 142.674 157.981 L 160.014 157.981 L 160.014 230.376 L 144.941 230.376 L 144.941 179.852 L 127.219 205.545 L 119.636 205.545 L 102.193 180.05 L 102.193 230.376 L 87.119 230.376 L 87.119 157.981 L 104.377 157.981 L 123.52 186.351 L 142.674 157.981 Z M 206.422 231.996 C 196.627 231.996 187.972 230.212 180.458 226.649 L 180.458 212.801 C 188.356 217.002 197.011 219.102 206.422 219.102 C 210.467 219.102 213.455 218.341 215.386 216.819 C 217.308 215.29 218.27 213.282 218.27 210.797 C 218.27 208.376 217.401 206.563 215.664 205.358 C 213.926 204.147 211.038 202.968 206.999 201.818 L 200.549 200.002 C 196.819 198.922 193.58 197.666 190.833 196.234 C 188.085 194.8 185.764 192.683 183.868 189.88 C 181.972 187.078 181.024 183.447 181.024 178.991 C 181.024 171.67 183.219 166.116 187.608 162.33 C 192.003 158.544 198.182 156.652 206.144 156.652 C 210.883 156.652 215.069 157.08 218.703 157.939 C 222.336 158.798 226.018 160.119 229.748 161.904 L 229.748 175.274 C 222.728 171.454 214.86 169.544 206.144 169.544 C 202.476 169.544 199.869 170.243 198.323 171.641 C 196.771 173.04 195.995 175.046 195.995 177.662 C 196.063 180.14 196.84 181.936 198.323 183.05 C 199.807 184.164 202.571 185.296 206.618 186.445 L 213.16 188.261 C 217.137 189.341 220.547 190.645 223.391 192.175 C 226.235 193.703 228.59 195.915 230.459 198.808 C 232.32 201.707 233.251 205.483 233.251 210.133 C 233.189 216.943 230.789 222.289 226.049 226.171 C 221.31 230.054 214.767 231.996 206.422 231.996 Z" style="fill: rgb(41, 66, 113); white-space: pre;"/>
  <text style="fill: rgb(41, 66, 113); font-family: &quot;Roboto Slab&quot;; font-size: 13px; white-space: pre;" transform="matrix(1.030319, 0, 0, 1.05701, -84.520752, -51.903915)"><tspan x="140.253" y="295.974">Total Material Management System</tspan></text>
  <path d="M 154.786 159.41 M 1.63 159.41 C -1.385 277.283 124.361 350.953 227.973 292.017 C 276.061 264.665 306.545 214.115 307.944 159.41 C 310.959 41.536 185.213 -32.135 81.6 26.802 C 33.513 54.155 3.029 104.704 1.63 159.41 Z M 154.786 159.41 M 6.242 159.41 C 9.166 45.086 134.781 -26.367 232.349 30.795 C 277.631 57.325 304.689 106.351 303.332 159.41 C 300.408 273.733 174.792 345.187 77.225 288.024 C 31.943 261.494 4.884 212.468 6.242 159.41 Z" style="fill: rgb(41, 66, 113);" transform="matrix(-0.699324, 0.714805, -0.714805, -0.699324, 376.979797, 160.245544)"/>
</svg>