<?xml version="1.0" encoding="utf-8"?>
<svg viewBox="24.341 37.817 439.22 428.139" xmlns="http://www.w3.org/2000/svg">
  <path d="M 220.494 154.955 L 220.494 168.045 L 200.393 168.045 L 200.393 227.35 L 185.226 227.35 L 185.226 168.045 L 165.135 168.045 L 165.135 154.955 L 220.494 154.955 Z M 294.775 154.955 L 312.115 154.955 L 312.115 227.35 L 297.042 227.35 L 297.042 176.827 L 279.32 202.519 L 271.737 202.519 L 254.294 177.024 L 254.294 227.35 L 239.22 227.35 L 239.22 154.955 L 256.478 154.955 L 275.621 183.325 L 294.775 154.955 Z" style="fill: rgb(41, 66, 113); white-space: pre;"/>
  <path d="M 231.838 250.458 L 249.178 250.458 L 249.178 322.853 L 234.105 322.853 L 234.105 272.329 L 216.383 298.022 L 208.8 298.022 L 191.357 272.527 L 191.357 322.853 L 176.283 322.853 L 176.283 250.458 L 193.541 250.458 L 212.684 278.828 L 231.838 250.458 Z M 295.586 324.473 C 285.791 324.473 277.136 322.689 269.622 319.126 L 269.622 305.278 C 277.52 309.479 286.175 311.579 295.586 311.579 C 299.631 311.579 302.619 310.818 304.55 309.296 C 306.472 307.767 307.434 305.759 307.434 303.274 C 307.434 300.853 306.565 299.04 304.828 297.835 C 303.09 296.624 300.202 295.445 296.163 294.295 L 289.713 292.479 C 285.983 291.399 282.744 290.143 279.997 288.711 C 277.249 287.277 274.928 285.16 273.032 282.357 C 271.136 279.555 270.188 275.924 270.188 271.468 C 270.188 264.147 272.383 258.593 276.772 254.807 C 281.167 251.021 287.346 249.129 295.308 249.129 C 300.047 249.129 304.233 249.557 307.867 250.416 C 311.5 251.275 315.182 252.596 318.912 254.381 L 318.912 267.751 C 311.892 263.931 304.024 262.021 295.308 262.021 C 291.64 262.021 289.033 262.72 287.487 264.118 C 285.935 265.517 285.159 267.523 285.159 270.139 C 285.227 272.617 286.004 274.413 287.487 275.527 C 288.971 276.641 291.735 277.773 295.782 278.922 L 302.324 280.738 C 306.301 281.818 309.711 283.122 312.555 284.652 C 315.399 286.18 317.754 288.392 319.623 291.285 C 321.484 294.184 322.415 297.96 322.415 302.61 C 322.353 309.42 319.953 314.766 315.213 318.648 C 310.474 322.531 303.931 324.473 295.586 324.473 Z" style="fill: rgb(41, 66, 113); white-space: pre;"/>
  <text style="fill: rgb(41, 66, 113); font-family: &quot;Roboto Slab&quot;; font-size: 13px; white-space: pre;" x="140.253" y="295.974" transform="matrix(1.030319, 0, 0, 1.05701, 4.64328, 40.573418)">Total Material Management System</text>
  <path d="M 243.95 251.887 M 88.754 251.887 C 82.647 368.211 208.161 440.913 314.679 382.751 C 364.115 355.759 396.314 305.873 399.148 251.887 C 405.255 135.563 279.741 62.86 173.222 121.022 C 123.787 148.016 91.588 197.9 88.754 251.887 Z M 243.95 251.887 M 93.427 251.887 C 99.35 139.066 228.488 68.552 325.876 124.963 C 371.074 151.144 397.223 199.526 394.475 251.887 C 388.552 364.708 259.413 435.222 162.026 378.811 C 116.828 352.63 90.678 304.248 93.427 251.887 Z" style="fill: rgb(41, 66, 113);" transform="matrix(-0.690132, 0.705409, -0.742431, -0.690132, 599.31781, 253.636368)"/>
</svg>